<svg width="1003" height="93" viewBox="0 0 1003 93" fill="none" xmlns="http://www.w3.org/2000/svg">
<path d="M46.504 92.512C39.848 92.512 33.704 91.36 28.072 89.056C22.44 86.752 17.5333 83.5947 13.352 79.584C9.256 75.5733 6.01333 70.7947 3.624 65.248C1.32 59.7013 0.168 53.6853 0.168 47.2C0.168 40.7147 1.32 34.6987 3.624 29.152C6.01333 23.6053 9.256 18.8267 13.352 14.816C17.5333 10.8053 22.44 7.64799 28.072 5.34399C33.704 3.03999 39.848 1.88799 46.504 1.88799C52.648 1.88799 58.408 2.86933 63.784 4.83199C69.2453 6.79466 73.9387 9.82399 77.864 13.92L74.664 17.12C70.7387 13.28 66.4293 10.5493 61.736 8.92799C57.0427 7.22133 52.008 6.368 46.632 6.368C40.744 6.368 35.24 7.43466 30.12 9.56799C25.0853 11.616 20.6907 14.4747 16.936 18.144C13.2667 21.728 10.3653 26.0373 8.232 31.072C6.184 36.0213 5.16 41.3973 5.16 47.2C5.16 53.0027 6.184 58.4213 8.232 63.456C10.3653 68.4053 13.2667 72.7147 16.936 76.384C20.6907 79.968 25.0853 82.8267 30.12 84.96C35.24 87.008 40.744 88.032 46.632 88.032C52.008 88.032 57.0427 87.1787 61.736 85.472C66.4293 83.7653 70.7387 80.992 74.664 77.152L77.864 80.352C73.9387 84.448 69.2453 87.52 63.784 89.568C58.408 91.5307 52.648 92.512 46.504 92.512ZM148.932 92.512C142.276 92.512 136.089 91.36 130.372 89.056C124.74 86.752 119.833 83.5947 115.652 79.584C111.556 75.5733 108.313 70.7947 105.924 65.248C103.62 59.7013 102.468 53.6853 102.468 47.2C102.468 40.7147 103.62 34.6987 105.924 29.152C108.313 23.6053 111.556 18.8267 115.652 14.816C119.833 10.8053 124.74 7.64799 130.372 5.34399C136.089 3.03999 142.276 1.88799 148.932 1.88799C155.588 1.88799 161.732 3.03999 167.364 5.34399C172.996 7.64799 177.86 10.8053 181.956 14.816C186.137 18.8267 189.38 23.6053 191.684 29.152C194.073 34.6987 195.268 40.7147 195.268 47.2C195.268 53.6853 194.073 59.7013 191.684 65.248C189.38 70.7947 186.137 75.5733 181.956 79.584C177.86 83.5947 172.996 86.752 167.364 89.056C161.732 91.36 155.588 92.512 148.932 92.512ZM148.932 88.032C154.82 88.032 160.281 87.008 165.316 84.96C170.351 82.8267 174.703 79.968 178.372 76.384C182.127 72.7147 185.028 68.4053 187.076 63.456C189.209 58.4213 190.276 53.0027 190.276 47.2C190.276 41.3973 189.209 36.0213 187.076 31.072C185.028 26.0373 182.127 21.6853 178.372 18.016C174.703 14.3467 170.351 11.488 165.316 9.43999C160.281 7.392 154.82 6.368 148.932 6.368C143.044 6.368 137.54 7.392 132.42 9.43999C127.385 11.488 122.991 14.3467 119.236 18.016C115.567 21.6853 112.665 26.0373 110.532 31.072C108.484 36.0213 107.46 41.3973 107.46 47.2C107.46 53.0027 108.484 58.4213 110.532 63.456C112.665 68.4053 115.567 72.7147 119.236 76.384C122.991 79.968 127.385 82.8267 132.42 84.96C137.54 87.008 143.044 88.032 148.932 88.032ZM236.345 47.2V87.52H265.913C272.484 87.52 278.372 86.5387 283.577 84.576C288.868 82.528 293.39 79.712 297.145 76.128C300.9 72.544 303.758 68.32 305.721 63.456C307.769 58.5067 308.793 53.088 308.793 47.2C308.793 41.312 307.769 35.936 305.721 31.072C303.758 26.1227 300.9 21.856 297.145 18.272C293.39 14.688 288.868 11.9147 283.577 9.952C278.372 7.904 272.484 6.88 265.913 6.88H231.353V2.39999H266.169C273.252 2.39999 279.694 3.50933 285.497 5.728C291.385 7.94667 296.42 11.0613 300.601 15.072C304.782 18.9973 308.025 23.7333 310.329 29.28C312.633 34.7413 313.785 40.7147 313.785 47.2C313.785 53.6853 312.633 59.7013 310.329 65.248C308.025 70.7093 304.782 75.4453 300.601 79.456C296.42 83.3813 291.385 86.4533 285.497 88.672C279.694 90.8907 273.252 92 266.169 92H231.353V47.2H236.345ZM349.903 44.256H409.039V48.736H349.903V44.256ZM349.903 0.479996H409.039V4.96H349.903V0.479996ZM349.903 92H409.039V87.52H349.903V92ZM483.647 92H478.271L519.615 2.39999H524.479L565.951 92H560.447L522.047 8.032L483.647 92ZM616.138 92H611.018L580.426 2.39999H585.674L613.706 84.96L642.634 2.39999H647.37L676.17 85.216L704.33 2.39999H709.322L678.73 92H673.61L644.938 9.43999L616.138 92ZM729.247 92H723.871L765.215 2.39999H770.079L811.551 92H806.047L767.647 8.032L729.247 92ZM913.086 92H906.814L867.262 46.816L846.27 68.32V92H841.278V2.39999H846.27V61.792L904.126 2.39999H910.27L870.718 43.36L913.086 92ZM943.578 44.256H1002.71V48.736H943.578V44.256ZM943.578 0.479996H1002.71V4.96H943.578V0.479996ZM943.578 92H1002.71V87.52H943.578V92Z" fill="black"/>
</svg>
